<svg width="40" height="21" viewBox="0 0 40 21" fill="none" xmlns="http://www.w3.org/2000/svg">
<path d="M3.99682 10.1834C5.4683 10.0496 6.88418 9.87134 8.31303 9.80146C11.4389 9.6272 14.5771 10.0276 17.3698 10.9568C18.5448 11.3532 19.6122 11.6026 20.891 11.5279C21.1004 11.5313 21.3082 11.5037 21.4988 11.4472C25.0682 9.88941 29.023 9.58339 33.1743 9.91712C34.1009 9.99302 35.0275 10.1135 36.1098 10.228C35.7577 9.23883 35.4371 8.32921 35.1091 7.4196C34.6161 6.05337 34.1139 4.68955 33.6265 3.32333C33.2225 2.18842 32.3032 1.87156 30.6483 2.28601C29.9635 2.46531 29.263 2.61818 28.5504 2.74382C27.7721 2.87274 27.2217 2.62335 26.927 2.16432C26.6323 1.7053 26.6694 1.227 27.3588 0.987246C28.9822 0.424611 30.6131 -0.185011 32.5942 0.0535366C34.6884 0.305337 36.0672 1.08965 36.5713 2.42215C37.698 5.40038 38.9638 8.36656 39.7477 11.3845C40.1758 13.0327 40.0109 14.8025 39.6124 16.4675C39.138 18.4591 36.0765 20.0241 32.8296 20.1168C30.8169 20.1735 28.7154 20.159 26.7787 19.847C23.5652 19.3301 21.712 17.5386 21.4303 15.1603C21.4043 14.9411 21.3895 14.7218 21.3654 14.4519H18.693C18.6078 14.9507 18.5522 15.4459 18.4336 15.9338C18.175 17.055 17.331 18.0842 16.0433 18.8487C14.7556 19.6132 13.1025 20.0665 11.3616 20.1325C9.73079 20.2106 8.09194 20.1795 6.4709 20.0397C2.70326 19.665 0.269953 17.6302 0.0420039 15.1676C-0.226716 12.264 0.842603 9.51713 1.86189 6.74974C2.36412 5.38471 2.84596 4.01728 3.34448 2.65346C4.11914 0.523403 7.10471 -0.517531 10.246 0.253532C10.9372 0.423406 11.6211 0.614967 12.2845 0.822191C13.1129 1.08604 13.4335 1.56313 13.1722 2.05589C12.8942 2.57997 12.2567 2.84623 11.3468 2.72093C10.662 2.60538 9.99214 2.45512 9.34343 2.27155C7.77373 1.87879 6.8397 2.17155 6.44681 3.22935C5.61656 5.47025 4.81225 7.71598 4.00053 9.95929C3.98654 10.0337 3.98529 10.1088 3.99682 10.1834ZM11.7082 12.8339C11.4654 12.7134 11.4209 12.6761 11.3672 12.6701C9.13926 12.4499 6.86176 12.6038 4.75109 13.117C4.65852 13.1437 4.57681 13.1841 4.51246 13.2349C4.44812 13.2857 4.40291 13.3456 4.38044 13.4098C4.34338 13.958 4.36376 14.5074 4.36376 15.217L11.7082 12.8339ZM32.7851 12.8339C32.5738 12.7207 32.5108 12.6592 32.4367 12.652C30.2602 12.4605 28.0448 12.6164 25.9818 13.1062C25.893 13.135 25.8162 13.1774 25.7578 13.2296C25.6994 13.2818 25.6612 13.3424 25.6464 13.4062C25.6649 13.9339 25.7391 14.4616 25.8058 15.1061L32.7851 12.8339Z" fill="#545454"/>
</svg>
